<?xml version="1.0" encoding="UTF-8" standalone="no"?>
<svg
   xmlns:dc="http://purl.org/dc/elements/1.1/"
   xmlns:cc="http://creativecommons.org/ns#"
   xmlns:rdf="http://www.w3.org/1999/02/22-rdf-syntax-ns#"
   xmlns:svg="http://www.w3.org/2000/svg"
   xmlns="http://www.w3.org/2000/svg"
   width="16.0px"
   height="16.0px"
   viewBox="0 0 16.0 16.0"
   version="1.1"
   id="SVGRoot">
  <defs
     id="defs506" />
  <metadata
     id="metadata509">
    <rdf:RDF>
      <cc:Work
         rdf:about="">
        <dc:format>image/svg+xml</dc:format>
        <dc:type
           rdf:resource="http://purl.org/dc/dcmitype/StillImage" />
        <dc:title></dc:title>
      </cc:Work>
    </rdf:RDF>
  </metadata>
  <g
     id="layer1">
    <g
       transform="matrix(1.3333333,0,0,-1.3333333,-9.6155998e-7,1066.6667)"
       id="g577">
      <g
         transform="translate(372.6162,316.0098)"
         id="g324">
        <path
           id="path326"
           style="fill:rgb(88, 76, 119);fill-opacity:1;fill-rule:nonzero;stroke:none"
           d="m 0,0 c 0,-34.838 -15.895,-49.094 -50.73,-49.094 -34.838,0 -50.733,14.256 -50.733,49.094 0,34.838 15.895,52.369 50.733,52.369 C -15.895,52.369 0,34.838 0,0" />
      </g>
      <g
         transform="translate(326.7812,286.0273)"
         id="g328">
        <path
           id="path330"
           style="fill:rgb(88, 76, 119);fill-opacity:1;fill-rule:nonzero;stroke:none"
           d="M 0,0 V 28.846 H 9.683 L 11.134,40.09 H 0 v 7.178 c 0,3.253 0.903,5.472 5.571,5.472 l 5.953,0.004 v 10.055 c -1.029,0.137 -4.562,0.443 -8.673,0.443 -8.584,0 -14.461,-5.24 -14.461,-14.861 V 40.09 h -9.707 V 28.846 h 9.707 V 0 Z" />
      </g>
    </g>
    <g
       transform="matrix(0.15745511,0,0,-0.15767174,-18.035267,82.73616)"
       id="g626">
      <g
         transform="translate(216.3779,472.249)"
         id="g332">
        <path
           id="path334"
           style="fill:rgb(201, 192, 228);fill-opacity:1;fill-rule:nonzero;stroke:none"
           d="m 0,0 c 0,-34.839 -15.895,-49.093 -50.73,-49.093 -34.838,0 -50.733,14.254 -50.733,49.093 0,34.837 15.895,52.369 50.733,52.369 C -15.895,52.369 0,34.837 0,0" />
      </g>
      <g
         transform="translate(144.5381,501.6299)"
         id="g336">
        <path
           id="path338"
           style="fill:rgb(88, 76, 119);fill-opacity:1;fill-rule:nonzero;stroke:none"
           d="m 0,0 c 3.688,0 6.676,-2.993 6.676,-6.676 0,-3.69 -2.988,-6.682 -6.676,-6.682 -3.699,0 -6.682,2.992 -6.682,6.682 C -6.682,-2.993 -3.699,0 0,0 m -5.768,-18.426 h 11.53 v -37.061 h -11.53 z" />
      </g>
      <g
         transform="translate(157.5293,483.2041)"
         id="g340">
        <path
           id="path342"
           style="fill:rgb(88, 76, 119);fill-opacity:1;fill-rule:nonzero;stroke:none"
           d="m 0,0 h 11.042 v -5.063 h 0.156 c 1.537,2.914 5.296,5.986 10.901,5.986 11.653,0 13.808,-7.673 13.808,-17.655 V -37.061 H 24.401 v 18.021 c 0,4.299 -0.084,9.829 -5.988,9.829 -5.994,0 -6.908,-4.682 -6.908,-9.517 V -37.061 H 0 Z" />
      </g>
    </g>
  </g>
</svg>
