<?xml version="1.0" encoding="UTF-8" standalone="no"?>
<svg
   xmlns:dc="http://purl.org/dc/elements/1.1/"
   xmlns:cc="http://creativecommons.org/ns#"
   xmlns:rdf="http://www.w3.org/1999/02/22-rdf-syntax-ns#"
   xmlns:svg="http://www.w3.org/2000/svg"
   xmlns="http://www.w3.org/2000/svg"
   id="SVGRoot"
   version="1.1"
   viewBox="0 0 16.0 16.0"
   height="16.0px"
   width="16.0px">
  <defs
     id="defs506" />
  <metadata
     id="metadata509">
    <rdf:RDF>
      <cc:Work
         rdf:about="">
        <dc:format>image/svg+xml</dc:format>
        <dc:type
           rdf:resource="http://purl.org/dc/dcmitype/StillImage" />
        <dc:title></dc:title>
      </cc:Work>
    </rdf:RDF>
  </metadata>
  <g
     id="layer1">
    <g
       id="g544"
       transform="matrix(0.1580367,0,0,-0.1580367,-42.801521,107.62074)">
      <g
         id="g268"
         transform="translate(372.6162,628.4873)">
        <path
           d="m 0,0 c 0,-34.839 -15.895,-49.094 -50.73,-49.094 -34.838,0 -50.733,14.255 -50.733,49.094 0,34.837 15.895,52.369 50.733,52.369 C -15.895,52.369 0,34.837 0,0"
           style="fill:rgb(201, 192, 228);fill-opacity:1;fill-rule:nonzero;stroke:none"
           id="path270" />
      </g>
      <g
         id="g272"
         transform="translate(311.5918,607.5771)">
        <path
           d="m 0,0 c 20.938,0 32.39,17.348 32.39,32.39 0,0.493 -0.01,0.984 -0.034,1.471 2.224,1.607 4.156,3.612 5.68,5.895 -2.039,-0.905 -4.234,-1.516 -6.537,-1.792 2.35,1.409 4.154,3.64 5.005,6.297 -2.199,-1.304 -4.635,-2.253 -7.228,-2.763 -2.078,2.212 -5.035,3.597 -8.31,3.597 -6.287,0 -11.385,-5.098 -11.385,-11.383 0,-0.894 0.1,-1.763 0.295,-2.596 -9.461,0.476 -17.85,5.006 -23.464,11.894 -0.977,-1.682 -1.542,-3.637 -1.542,-5.722 0,-3.949 2.01,-7.435 5.067,-9.475 -1.868,0.057 -3.622,0.57 -5.157,1.424 -0.004,-0.048 -0.004,-0.096 -0.004,-0.145 0,-5.515 3.926,-10.116 9.134,-11.161 -0.955,-0.26 -1.962,-0.4 -3,-0.4 -0.734,0 -1.447,0.073 -2.141,0.205 1.45,-4.523 5.652,-7.814 10.634,-7.907 -3.896,-3.053 -8.802,-4.873 -14.138,-4.873 -0.918,0 -1.825,0.053 -2.715,0.157 C -12.411,1.885 -6.431,0 0,0"
           style="fill:rgb(88, 76, 119);fill-opacity:1;fill-rule:nonzero;stroke:none"
           id="path274" />
      </g>
    </g>
  </g>
</svg>
