<?xml version="1.0" encoding="UTF-8" standalone="no"?>
<svg
   xmlns:dc="http://purl.org/dc/elements/1.1/"
   xmlns:cc="http://creativecommons.org/ns#"
   xmlns:rdf="http://www.w3.org/1999/02/22-rdf-syntax-ns#"
   xmlns:svg="http://www.w3.org/2000/svg"
   xmlns="http://www.w3.org/2000/svg"
   id="SVGRoot"
   version="1.1"
   viewBox="0 0 16.0 16.0"
   height="16.0px"
   width="16.0px">
  <defs
     id="defs506" />
  <metadata
     id="metadata509">
    <rdf:RDF>
      <cc:Work
         rdf:about="">
        <dc:format>image/svg+xml</dc:format>
        <dc:type
           rdf:resource="http://purl.org/dc/dcmitype/StillImage" />
        <dc:title></dc:title>
      </cc:Work>
    </rdf:RDF>
  </metadata>
  <g
     id="layer1">
    <g
       id="g489"
       transform="matrix(0.15743533,0,0,-0.15743533,-18.036297,107.14838)">
      <g
         id="g300"
         transform="translate(216.3779,628.4873)">
        <path
           d="m 0,0 c 0,-34.839 -15.895,-49.094 -50.73,-49.094 -34.838,0 -50.733,14.255 -50.733,49.094 0,34.837 15.895,52.369 50.733,52.369 C -15.895,52.369 0,34.837 0,0"
           style="fill:rgb(201, 192, 228);fill-opacity:1;fill-rule:nonzero;stroke:none"
           id="path302" />
      </g>
      <g
         id="g304"
         transform="translate(195.0732,642.1318)">
        <path
           d="m 0,0 c 0,0 -0.588,4.138 -2.388,5.96 -2.284,2.392 -4.842,2.404 -6.016,2.544 -8.405,0.607 -21.01,0.607 -21.01,0.607 h -0.025 c 0,0 -12.606,0 -21.01,-0.607 -1.174,-0.14 -3.733,-0.152 -6.017,-2.544 -1.8,-1.822 -2.386,-5.96 -2.386,-5.96 0,0 -0.601,-4.859 -0.601,-9.719 v -4.556 c 0,-4.86 0.601,-9.719 0.601,-9.719 0,0 0.586,-4.138 2.386,-5.961 2.284,-2.391 5.285,-2.316 6.621,-2.566 4.806,-0.461 20.418,-0.604 20.418,-0.604 0,0 12.618,0.019 21.023,0.626 1.174,0.141 3.732,0.153 6.016,2.544 1.8,1.823 2.388,5.961 2.388,5.961 0,0 0.6,4.859 0.6,9.719 v 4.556 C 0.6,-4.859 0,0 0,0"
           style="fill:rgb(88, 76, 119);fill-opacity:1;fill-rule:nonzero;stroke:none"
           id="path306" />
      </g>
      <g
         id="g308"
         transform="translate(159.4443,622.3359)">
        <path
           d="M 0,0 16.226,8.406 0,16.873 Z"
           style="fill:rgb(201, 192, 228);fill-opacity:1;fill-rule:nonzero;stroke:none"
           id="path310" />
      </g>
    </g>
  </g>
</svg>
